<?xml version="1.0" standalone="no"?>
<!DOCTYPE svg PUBLIC "-//W3C//DTD SVG 20010904//EN"
 "http://www.w3.org/TR/2001/REC-SVG-20010904/DTD/svg10.dtd">
<svg version="1.0" xmlns="http://www.w3.org/2000/svg"
 width="600.000000pt" height="600.000000pt" viewBox="0 0 600.000000 600.000000"
 preserveAspectRatio="xMidYMid meet">
<metadata>
Created by potrace 1.11, written by Peter Selinger 2001-2013
</metadata>
<g transform="translate(0.000000,600.000000) scale(0.100000,-0.100000)"
fill="#000000" stroke="none">
<path d="M2945 3743 c-133 -21 -251 -75 -343 -159 -119 -107 -175 -235 -175
-399 0 -366 261 -611 632 -592 170 8 305 68 408 182 125 138 181 352 138 534
-46 195 -215 362 -421 416 -62 16 -191 26 -239 18z m205 -297 c62 -32 115 -82
145 -137 25 -46 29 -65 29 -129 0 -127 -64 -234 -172 -287 -74 -37 -182 -39
-254 -6 -64 29 -133 104 -158 171 -28 75 -28 174 0 234 29 63 103 134 164 158
65 26 192 23 246 -4z"/>
<path d="M660 3165 l0 -545 140 0 140 0 0 225 0 225 200 0 200 0 0 -225 0
-226 143 3 142 3 3 543 2 542 -145 0 -145 0 0 -210 0 -210 -200 0 -200 0 0
210 0 210 -140 0 -140 0 0 -545z"/>
<path d="M1977 2906 c-94 -34 -159 -104 -184 -198 -23 -92 -28 -88 97 -88
l110 0 0 30 c0 37 23 85 45 94 67 25 125 -23 125 -103 0 -88 -23 -119 -312
-433 l-90 -98 311 0 311 0 0 85 0 85 -126 0 -126 0 99 98 c55 53 108 115 119
137 11 25 20 70 22 118 4 68 1 84 -22 132 -48 97 -151 155 -274 155 -37 -1
-84 -7 -105 -14z"/>
</g>
</svg>
