<?xml version="1.0" encoding="UTF-8" standalone="no"?>
<svg width="103px" height="20px" viewBox="0 0 103 20" version="1.1" xmlns="http://www.w3.org/2000/svg" xmlns:xlink="http://www.w3.org/1999/xlink">
    <!-- Generator: Sketch 40.1 (33804) - http://www.bohemiancoding.com/sketch -->
    <title>Deep Water</title>
    <desc>Created with Sketch.</desc>
    <defs></defs>
    <g id="Home-2" stroke="none" stroke-width="1" fill="none" fill-rule="evenodd">
        <path d="M0,15.0674732 L0,0.697999069 L3.01535598,0.697999069 C4.46099684,0.697999069 5.60260168,0.840699674 6.44020475,1.12610517 C7.33985249,1.40530619 8.15572769,1.87994081 8.88785482,2.55002327 C10.3707225,3.90259711 11.1121452,5.6801503 11.1121452,7.88273616 C11.1121452,10.0915265 10.3397006,11.8783862 8.79478827,13.243369 C8.01922987,13.9258604 7.20645686,14.400495 6.35644486,14.6672871 C5.56227306,14.9340792 4.43617915,15.0674732 2.97812936,15.0674732 L0,15.0674732 Z M2.16845044,13.029316 L3.14564914,13.029316 C4.11975049,13.029316 4.92942131,12.9269438 5.5746859,12.7221964 C6.21995049,12.50504 6.80316166,12.1606973 7.3243369,11.6891577 C8.39150526,10.7150564 8.92508143,9.44626189 8.92508143,7.88273616 C8.92508143,6.30680149 8.39770963,5.02870042 7.34295021,4.0483946 C6.39366673,3.17356473 4.99458036,2.73615635 3.14564914,2.73615635 L2.16845044,2.73615635 L2.16845044,13.029316 Z M21.6938111,11.0283853 L15.1977664,11.0283853 C15.2536066,11.7729214 15.4955772,12.3654391 15.9236854,12.8059563 C16.3517937,13.240269 16.9008808,13.4574221 17.5709632,13.4574221 C18.0921385,13.4574221 18.5233425,13.3333346 18.8645882,13.0851559 C19.1996294,12.8369772 19.5811984,12.3778535 20.0093067,11.7077711 L21.777571,12.6942764 C21.5045744,13.1596114 21.216071,13.5582425 20.9120521,13.8901815 C20.6080332,14.2221205 20.2823036,14.4951129 19.9348534,14.7091671 C19.5874033,14.9232212 19.2120386,15.0798816 18.8087483,15.1791531 C18.4054579,15.2784246 17.9680495,15.3280596 17.49651,15.3280596 C16.1439362,15.3280596 15.0581707,14.8937534 14.239181,14.025128 C13.4201913,13.1502981 13.0107027,11.9900801 13.0107027,10.5444393 C13.0107027,9.11120735 13.4077826,7.95098939 14.2019544,7.06375058 C15.0023307,6.18892071 16.0632786,5.75151233 17.3848302,5.75151233 C18.7187906,5.75151233 19.7735342,6.17651196 20.5490926,7.02652396 C21.3184465,7.8703315 21.7031177,9.03985603 21.7031177,10.5351326 L21.6938111,11.0283853 Z M19.5439739,9.31596091 C19.252364,8.19915682 18.5481675,7.64076315 17.4313634,7.64076315 C17.1769803,7.64076315 16.9381119,7.67954048 16.714751,7.75709632 C16.4913902,7.83465216 16.288197,7.9463309 16.1051652,8.09213588 C15.9221334,8.23794086 15.765473,8.41321443 15.6351792,8.61796184 C15.5048853,8.82270926 15.4056154,9.05537329 15.3373662,9.31596091 L19.5439739,9.31596091 Z M32.2382503,11.0283853 L25.7422057,11.0283853 C25.7980459,11.7729214 26.0400165,12.3654391 26.4681247,12.8059563 C26.8962329,13.240269 27.4453201,13.4574221 28.1154025,13.4574221 C28.6365778,13.4574221 29.0677818,13.3333346 29.4090275,13.0851559 C29.7440687,12.8369772 30.1256377,12.3778535 30.5537459,11.7077711 L32.3220102,12.6942764 C32.0490137,13.1596114 31.7605103,13.5582425 31.4564914,13.8901815 C31.1524725,14.2221205 30.8267429,14.4951129 30.4792927,14.7091671 C30.1318425,14.9232212 29.7564779,15.0798816 29.3531875,15.1791531 C28.9498972,15.2784246 28.5124888,15.3280596 28.0409493,15.3280596 C26.6883754,15.3280596 25.60261,14.8937534 24.7836203,14.025128 C23.9646306,13.1502981 23.5551419,11.9900801 23.5551419,10.5444393 C23.5551419,9.11120735 23.9522219,7.95098939 24.7463937,7.06375058 C25.5467699,6.18892071 26.6077179,5.75151233 27.9292694,5.75151233 C29.2632299,5.75151233 30.3179735,6.17651196 31.0935319,7.02652396 C31.8628858,7.8703315 32.247557,9.03985603 32.247557,10.5351326 L32.2382503,11.0283853 Z M30.0884132,9.31596091 C29.7968033,8.19915682 29.0926068,7.64076315 27.9758027,7.64076315 C27.7214195,7.64076315 27.4825511,7.67954048 27.2591903,7.75709632 C27.0358295,7.83465216 26.8326362,7.9463309 26.6496045,8.09213588 C26.4665727,8.23794086 26.3099122,8.41321443 26.1796184,8.61796184 C26.0493246,8.82270926 25.9500546,9.05537329 25.8818055,9.31596091 L30.0884132,9.31596091 Z M36.6216845,20 L34.5276873,20 L34.5276873,6.002792 L36.6216845,6.002792 L36.6216845,6.98929735 C37.4468786,6.16410321 38.3837391,5.75151233 39.4322941,5.75151233 C40.679392,5.75151233 41.7062159,6.21063602 42.5127966,7.12889716 C43.3317863,8.04095384 43.741275,9.19186524 43.741275,10.5816659 C43.741275,11.9404442 43.3348885,13.0727425 42.5221033,13.9785947 C41.7155226,14.8782424 40.6980052,15.3280596 39.4695207,15.3280596 C38.4085568,15.3280596 37.4592876,14.9030599 36.6216845,14.0530479 L36.6216845,20 Z M41.6007445,10.5909725 C41.6007445,9.72234714 41.3649783,9.01504849 40.8934388,8.46905537 C40.4156948,7.91685779 39.8138705,7.64076315 39.0879479,7.64076315 C38.318594,7.64076315 37.6950544,7.90755123 37.2173104,8.44113541 C36.7395664,8.97471959 36.500698,9.67581387 36.500698,10.5444393 C36.500698,11.3944513 36.7395664,12.0955456 37.2173104,12.6477431 C37.6888499,13.1875318 38.3092873,13.4574221 39.0786412,13.4574221 C39.8045639,13.4574221 40.403286,13.1844296 40.8748255,12.6384365 C41.3587739,12.0924434 41.6007445,11.4099622 41.6007445,10.5909725 L41.6007445,10.5909725 Z M52.9455561,0.697999069 L56.6868311,10.3024663 L60.5956259,0 L64.3369009,10.3024663 L68.3108423,0.697999069 L70.6654258,0.697999069 L64.2438343,15.9795254 L60.5490926,5.7980456 L56.6961377,15.988832 L50.5909725,0.697999069 L52.9455561,0.697999069 Z M76.5503335,6.002792 L78.6536374,6.002792 L78.6536374,15.0674732 L76.5503335,15.0674732 L76.5503335,14.1181945 C75.6879125,14.9247752 74.7603586,15.3280596 73.7676439,15.3280596 C72.5143415,15.3280596 71.478211,14.8751403 70.6592213,13.969288 C69.8464361,13.0448224 69.4400496,11.8908088 69.4400496,10.5072127 C69.4400496,9.14843434 69.8464361,8.01613606 70.6592213,7.11028385 C71.4720065,6.20443164 72.4895239,5.75151233 73.7118039,5.75151233 C74.7665634,5.75151233 75.7127304,6.18581852 76.5503335,7.05444393 L76.5503335,6.002792 Z M71.5805801,10.5072127 C71.5805801,11.3758381 71.8132441,12.0831367 72.2785792,12.6291298 C72.7563232,13.1813274 73.3581474,13.4574221 74.0840701,13.4574221 C74.8596285,13.4574221 75.4862703,13.190634 75.9640143,12.6570498 C76.4417582,12.1048522 76.6806266,11.4037579 76.6806266,10.5537459 C76.6806266,9.70373392 76.4417582,9.00263965 75.9640143,8.45044207 C75.4862703,7.91065342 74.8658329,7.64076315 74.1026834,7.64076315 C73.3829652,7.64076315 72.7811409,7.91375561 72.2971925,8.45974872 C71.8194485,9.0119463 71.5805801,9.69442745 71.5805801,10.5072127 L71.5805801,10.5072127 Z M83.4558709,7.95718939 L83.4558709,15.0674732 L81.3618737,15.0674732 L81.3618737,7.95718939 L80.4684349,7.95718939 L80.4684349,6.002792 L81.3618737,6.002792 L81.3618737,2.68031643 L83.4558709,2.68031643 L83.4558709,6.002792 L85.0845354,6.002792 L85.0845354,7.95718939 L83.4558709,7.95718939 Z M94.7634559,11.0283853 L88.2674112,11.0283853 C88.3232514,11.7729214 88.565222,12.3654391 88.9933302,12.8059563 C89.4214385,13.240269 89.9705256,13.4574221 90.640608,13.4574221 C91.1617833,13.4574221 91.5929873,13.3333346 91.934233,13.0851559 C92.2692742,12.8369772 92.6508432,12.3778535 93.0789515,11.7077711 L94.8472158,12.6942764 C94.5742192,13.1596114 94.2857158,13.5582425 93.9816969,13.8901815 C93.677678,14.2221205 93.3519484,14.4951129 93.0044982,14.7091671 C92.6570481,14.9232212 92.2816834,15.0798816 91.8783931,15.1791531 C91.4751027,15.2784246 91.0376943,15.3280596 90.5661548,15.3280596 C89.213581,15.3280596 88.1278155,14.8937534 87.3088258,14.025128 C86.4898361,13.1502981 86.0803474,11.9900801 86.0803474,10.5444393 C86.0803474,9.11120735 86.4774274,7.95098939 87.2715992,7.06375058 C88.0719755,6.18892071 89.1329234,5.75151233 90.4544749,5.75151233 C91.7884354,5.75151233 92.843179,6.17651196 93.6187374,7.02652396 C94.3880913,7.8703315 94.7727625,9.03985603 94.7727625,10.5351326 L94.7634559,11.0283853 Z M92.6136187,9.31596091 C92.3220088,8.19915682 91.6178123,7.64076315 90.5010082,7.64076315 C90.2466251,7.64076315 90.0077567,7.67954048 89.7843958,7.75709632 C89.561035,7.83465216 89.3578418,7.9463309 89.17481,8.09213588 C88.9917782,8.23794086 88.8351178,8.41321443 88.7048239,8.61796184 C88.5745301,8.82270926 88.4752602,9.05537329 88.407011,9.31596091 L92.6136187,9.31596091 Z M97.0528928,6.002792 L99.14689,6.002792 L99.14689,6.81247092 C99.531567,6.40918055 99.8728076,6.1330859 100.170622,5.98417869 C100.474641,5.82906701 100.834495,5.75151233 101.250194,5.75151233 C101.802391,5.75151233 102.379398,5.93143918 102.981232,6.29129828 L102.022646,8.20846906 C101.62556,7.92306356 101.237787,7.78036296 100.859314,7.78036296 C99.7176924,7.78036296 99.14689,8.64277096 99.14689,10.3676128 L99.14689,15.0674732 L97.0528928,15.0674732 L97.0528928,6.002792 Z" id="Deep-Water" fill="#FFFFFF"></path>
    </g>
</svg>