<?xml version="1.0" encoding="UTF-8" standalone="no"?>
<svg width="24px" height="25px" viewBox="0 0 24 25" version="1.1" xmlns="http://www.w3.org/2000/svg" xmlns:xlink="http://www.w3.org/1999/xlink">
    <!-- Generator: Sketch 40 (33762) - http://www.bohemiancoding.com/sketch -->
    <title>Group 9</title>
    <desc>Created with Sketch.</desc>
    <defs>
        <polygon id="path-1" points="23.9996347 0.5 0 0.5 0 8.5 23.9996347 8.5 23.9996347 0.5"></polygon>
    </defs>
    <g id="Home" stroke="none" stroke-width="1" fill="none" fill-rule="evenodd">
        <g id="Group-9">
            <g id="Group-3">
                <mask id="mask-2" fill="white">
                    <use xlink:href="#path-1"></use>
                </mask>
                <g id="Clip-2"></g>
                <path d="M2.3497,7.5 L21.7837,7.5 L12.4887,1.585 L2.3497,7.5 Z M23.4997,8.5 L0.4997,8.5 C0.2737,8.5 0.0767,8.349 0.0167,8.13 C-0.0413,7.913 0.0527,7.682 0.2477,7.568 L12.2477,0.568 C12.4097,0.473 12.6097,0.478 12.7687,0.578 L23.7687,7.578 C23.9557,7.698 24.0417,7.926 23.9797,8.14 C23.9177,8.353 23.7227,8.5 23.4997,8.5 L23.4997,8.5 Z" id="Fill-1" fill="#FFDF00" mask="url(#mask-2)"></path>
            </g>
            <path d="M1,23.5 L23,23.5 L23,21.5 L1,21.5 L1,23.5 Z M23.5,24.5 L0.5,24.5 C0.224,24.5 0,24.276 0,24 L0,21 C0,20.724 0.224,20.5 0.5,20.5 L23.5,20.5 C23.777,20.5 24,20.724 24,21 L24,24 C24,24.276 23.777,24.5 23.5,24.5 L23.5,24.5 Z" id="Fill-4" fill="#FFDF00"></path>
            <path d="M4,18.5 L6,18.5 L6,10.5 L4,10.5 L4,18.5 Z M6.5,19.5 L3.5,19.5 C3.224,19.5 3,19.276 3,19 L3,10 C3,9.724 3.224,9.5 3.5,9.5 L6.5,9.5 C6.777,9.5 7,9.724 7,10 L7,19 C7,19.276 6.777,19.5 6.5,19.5 L6.5,19.5 Z" id="Fill-6" fill="#FFDF00"></path>
            <path d="M3.5001,10.5 L2.5001,10.5 C2.2241,10.5 2.0001,10.276 2.0001,10 C2.0001,9.724 2.2241,9.5 2.5001,9.5 L3.5001,9.5 C3.7761,9.5 4.0001,9.724 4.0001,10 C4.0001,10.276 3.7761,10.5 3.5001,10.5" id="Fill-7" fill="#FFDF00"></path>
            <path d="M3.5001,19.5 L2.5001,19.5 C2.2241,19.5 2.0001,19.276 2.0001,19 C2.0001,18.724 2.2241,18.5 2.5001,18.5 L3.5001,18.5 C3.7761,18.5 4.0001,18.724 4.0001,19 C4.0001,19.276 3.7761,19.5 3.5001,19.5" id="Fill-8" fill="#FFDF00"></path>
            <path d="M7.5001,19.5 L6.5001,19.5 C6.2241,19.5 6.0001,19.276 6.0001,19 C6.0001,18.724 6.2241,18.5 6.5001,18.5 L7.5001,18.5 C7.7761,18.5 8.0001,18.724 8.0001,19 C8.0001,19.276 7.7761,19.5 7.5001,19.5" id="Fill-9" fill="#FFDF00"></path>
            <path d="M7.5001,10.5 L6.5001,10.5 C6.2241,10.5 6.0001,10.276 6.0001,10 C6.0001,9.724 6.2241,9.5 6.5001,9.5 L7.5001,9.5 C7.7761,9.5 8.0001,9.724 8.0001,10 C8.0001,10.276 7.7761,10.5 7.5001,10.5" id="Fill-10" fill="#FFDF00"></path>
            <path d="M11,18.5 L13,18.5 L13,10.5 L11,10.5 L11,18.5 Z M13.5,19.5 L10.5,19.5 C10.224,19.5 10,19.276 10,19 L10,10 C10,9.724 10.224,9.5 10.5,9.5 L13.5,9.5 C13.777,9.5 14,9.724 14,10 L14,19 C14,19.276 13.777,19.5 13.5,19.5 L13.5,19.5 Z" id="Fill-11" fill="#FFDF00"></path>
            <path d="M10.5001,10.5 L9.5001,10.5 C9.2241,10.5 9.0001,10.276 9.0001,10 C9.0001,9.724 9.2241,9.5 9.5001,9.5 L10.5001,9.5 C10.7761,9.5 11.0001,9.724 11.0001,10 C11.0001,10.276 10.7761,10.5 10.5001,10.5" id="Fill-12" fill="#FFDF00"></path>
            <path d="M10.5001,19.5 L9.5001,19.5 C9.2241,19.5 9.0001,19.276 9.0001,19 C9.0001,18.724 9.2241,18.5 9.5001,18.5 L10.5001,18.5 C10.7761,18.5 11.0001,18.724 11.0001,19 C11.0001,19.276 10.7761,19.5 10.5001,19.5" id="Fill-13" fill="#FFDF00"></path>
            <path d="M14.5001,19.5 L13.5001,19.5 C13.2241,19.5 13.0001,19.276 13.0001,19 C13.0001,18.724 13.2241,18.5 13.5001,18.5 L14.5001,18.5 C14.7761,18.5 15.0001,18.724 15.0001,19 C15.0001,19.276 14.7761,19.5 14.5001,19.5" id="Fill-14" fill="#FFDF00"></path>
            <path d="M14.5001,10.5 L13.5001,10.5 C13.2241,10.5 13.0001,10.276 13.0001,10 C13.0001,9.724 13.2241,9.5 13.5001,9.5 L14.5001,9.5 C14.7761,9.5 15.0001,9.724 15.0001,10 C15.0001,10.276 14.7761,10.5 14.5001,10.5" id="Fill-15" fill="#FFDF00"></path>
            <path d="M18,18.5 L20,18.5 L20,10.5 L18,10.5 L18,18.5 Z M20.5,19.5 L17.5,19.5 C17.224,19.5 17,19.276 17,19 L17,10 C17,9.724 17.224,9.5 17.5,9.5 L20.5,9.5 C20.777,9.5 21,9.724 21,10 L21,19 C21,19.276 20.777,19.5 20.5,19.5 L20.5,19.5 Z" id="Fill-16" fill="#FFDF00"></path>
            <path d="M17.5001,10.5 L16.5001,10.5 C16.2241,10.5 16.0001,10.276 16.0001,10 C16.0001,9.724 16.2241,9.5 16.5001,9.5 L17.5001,9.5 C17.7761,9.5 18.0001,9.724 18.0001,10 C18.0001,10.276 17.7761,10.5 17.5001,10.5" id="Fill-17" fill="#FFDF00"></path>
            <path d="M17.5001,19.5 L16.5001,19.5 C16.2241,19.5 16.0001,19.276 16.0001,19 C16.0001,18.724 16.2241,18.5 16.5001,18.5 L17.5001,18.5 C17.7761,18.5 18.0001,18.724 18.0001,19 C18.0001,19.276 17.7761,19.5 17.5001,19.5" id="Fill-18" fill="#FFDF00"></path>
            <path d="M21.5001,19.5 L20.5001,19.5 C20.2241,19.5 20.0001,19.276 20.0001,19 C20.0001,18.724 20.2241,18.5 20.5001,18.5 L21.5001,18.5 C21.7761,18.5 22.0001,18.724 22.0001,19 C22.0001,19.276 21.7761,19.5 21.5001,19.5" id="Fill-19" fill="#FFDF00"></path>
            <path d="M21.5001,10.5 L20.5001,10.5 C20.2241,10.5 20.0001,10.276 20.0001,10 C20.0001,9.724 20.2241,9.5 20.5001,9.5 L21.5001,9.5 C21.7761,9.5 22.0001,9.724 22.0001,10 C22.0001,10.276 21.7761,10.5 21.5001,10.5" id="Fill-20" fill="#FFDF00"></path>
        </g>
    </g>
</svg>