<?xml version="1.0" encoding="UTF-8" standalone="no"?>
<svg width="48px" height="47px" viewBox="0 0 48 47" version="1.1" xmlns="http://www.w3.org/2000/svg" xmlns:xlink="http://www.w3.org/1999/xlink">
    <!-- Generator: Sketch 40.1 (33804) - http://www.bohemiancoding.com/sketch -->
    <title>github-icon</title>
    <desc>Created with Sketch.</desc>
    <defs></defs>
    <g id="Symbols" stroke="none" stroke-width="1" fill="none" fill-rule="evenodd">
        <g id="Footer-Copy-2" transform="translate(-1200.000000, -285.000000)" fill="#FFFFFF">
            <g id="Footer" transform="translate(0.000000, 23.000000)">
                <g id="github-icon" transform="translate(1200.000000, 262.000000)">
                    <path d="M24.0001987,0 C10.7469924,0 0,10.7450052 0,24.0001987 C0,34.6041152 6.87678744,43.6004141 16.4128007,46.7739186 C17.6122542,46.9960836 18.0526103,46.2532809 18.0526103,45.6193749 C18.0526103,45.0470709 18.030354,43.1564811 18.0200207,41.151033 C11.3431422,42.6028566 9.93424138,38.319321 9.93424138,38.319321 C8.8424922,35.5452371 7.2694515,34.8076009 7.2694515,34.8076009 C5.09191472,33.3180212 7.43359136,33.3486234 7.43359136,33.3486234 C9.84362661,33.5179299 11.1126309,35.8218506 11.1126309,35.8218506 C13.2532064,39.4909543 16.7271704,38.4302049 18.0967253,37.8169654 C18.3121342,36.2657835 18.9341173,35.2070213 19.6204843,34.6076919 C14.2897123,34.0008113 8.68590356,31.942902 8.68590356,22.7466941 C8.68590356,20.1264167 9.62344853,17.985444 11.1587332,16.3046988 C10.9095425,15.7002029 10.088048,13.2591679 11.3912316,9.95331817 C11.3912316,9.95331817 13.4066156,9.30828399 17.9929952,12.4134299 C19.9074313,11.8816643 21.9605713,11.6149865 24.0001987,11.6058456 C26.0398262,11.6149865 28.094556,11.8816643 30.0125687,12.4134299 C34.5933844,9.30828399 36.6059861,9.95331817 36.6059861,9.95331817 C37.9123494,13.2591679 37.0904574,15.7002029 36.8412668,16.3046988 C38.3801284,17.985444 39.3113143,20.1264167 39.3113143,22.7466941 C39.3113143,31.9647609 33.6967749,33.9944526 28.3524902,34.5886151 C29.2133306,35.3334052 29.9803766,36.7939721 29.9803766,39.0331112 C29.9803766,42.2443719 29.9525565,44.8288802 29.9525565,45.6193749 C29.9525565,46.2580502 30.3845662,47.0064169 31.6011094,46.7707389 C41.131956,43.5936576 48,34.6005382 48,24.0001987 C48,10.7450052 37.2545976,0 24.0001987,0 L24.0001987,0 Z M8.98885487,34.1887898 C8.93599622,34.3080197 8.74840772,34.3437887 8.57751144,34.2619176 C8.40343566,34.183623 8.30566714,34.0210729 8.36210265,33.9014456 C8.41376895,33.7786386 8.60175488,33.7444594 8.77543318,33.826728 C8.94990641,33.9050224 9.04926471,34.0691623 8.98885487,34.1887898 L8.98885487,34.1887898 Z M10.169398,35.2421726 C10.0549372,35.3482873 9.83118231,35.2990056 9.67936279,35.1312889 C9.52237665,34.9639695 9.49296662,34.7402145 9.6090171,34.63251 C9.72705476,34.5263953 9.94405335,34.5760746 10.1014369,34.7433939 C10.258423,34.9127004 10.2890254,35.1348656 10.169398,35.2421726 L10.169398,35.2421726 Z M10.9792952,36.5899401 C10.832245,36.6920805 10.5917979,36.5962989 10.4431578,36.3828774 C10.2961075,36.1694558 10.2961075,35.9135087 10.4463373,35.8109709 C10.5953747,35.7084332 10.832245,35.8006378 10.9828721,36.0124697 C11.129525,36.2294681 11.129525,36.485415 10.9792952,36.5899401 L10.9792952,36.5899401 Z M12.3490048,38.1508451 C12.2174545,38.2959086 11.9372641,38.25696 11.7321884,38.0590384 C11.5223437,37.8654881 11.463921,37.5908618 11.5958689,37.4457986 C11.729009,37.3003382 12.0107892,37.3412738 12.2174545,37.5376058 C12.4257095,37.7307585 12.4892988,38.007372 12.3490048,38.1508451 L12.3490048,38.1508451 Z M14.1192216,38.6777891 C14.0611964,38.8657751 13.7913392,38.9512232 13.5194948,38.8713392 C13.2480479,38.7890706 13.0703953,38.5688927 13.1252411,38.3789196 C13.1816766,38.1897414 13.452726,38.1007163 13.7265575,38.1861643 C13.997607,38.2680356 14.1756571,38.4866239 14.1192216,38.6777891 L14.1192216,38.6777891 Z M16.1338026,38.9013051 C16.1405589,39.0992267 15.9100476,39.2633666 15.6246905,39.2669437 C15.3377437,39.2733026 15.1056427,39.1131371 15.1024633,38.9183947 C15.1024633,38.7184858 15.3278079,38.5559357 15.6147547,38.5511664 C15.9001118,38.5456024 16.1338026,38.7045756 16.1338026,38.9013051 L16.1338026,38.9013051 Z M18.1129026,38.8254418 C18.1470819,39.0185946 17.9487626,39.2169135 17.6653928,39.2697722 C17.3867921,39.3206436 17.1288579,39.2014136 17.0934863,39.0098509 C17.0589097,38.8119291 17.2608057,38.6136099 17.539009,38.5623412 C17.8227763,38.5130595 18.0767362,38.6291098 18.1129026,38.8254418 L18.1129026,38.8254418 Z" id="Shape"></path>
                </g>
            </g>
        </g>
    </g>
</svg>