<svg version="1.1" id="Layer_1" xmlns="http://www.w3.org/2000/svg" x="0" y="0" viewBox="0 0 64 64" xml:space="preserve"><style type="text/css">.st2{fill:#231f20}</style><g id="Page-1-Copy"><g id="H2O_Logo_2017"><path id="Fill-1" fill="#ffe52b" d="M0 64h64V0H0z"/><path id="Fill-2" d="M55.8 22.4c-.6 0-1.1.5-1.1 1.1 0 .6.5 1.1 1.1 1.1.6 0 1.1-.5 1.1-1.1 0-.6-.5-1.1-1.1-1.1zm-.7 13.3h1.5v-8.9h-1.5v8.9zM47.6 28c1.9 0 3 1.4 3 3.2 0 1.8-1 3.4-3 3.4-1.9 0-2.9-1.6-2.9-3.4 0-1.7 1.1-3.2 2.9-3.2zm4.4-1.2h-1.5v1.3c-.7-.9-1.8-1.5-3.1-1.5-2.7 0-4.3 2.2-4.3 4.7s1.7 4.7 4.3 4.7c1.3 0 2.3-.5 3.1-1.5v1.2H52v-8.9zm-11.5 7c-.6 0-1.1.5-1.1 1 0 .6.5 1.1 1.1 1.1.6 0 1.1-.5 1.1-1.1 0-.5-.5-1-1.1-1z" fill="gray"/><path id="Fill-4" d="M10 28.9v-4.5H7V36h3v-4.7h4.3V36h3V24.4h-3v4.5z"/><g id="Group-9" transform="translate(18.827 24)"><path id="Fill-5" class="st2" d="M4 15.7l1.3-1.2c.8-.8 1.3-1.5 1.3-2.7 0-1.8-1.5-3-3.2-3-2 0-3.2 1.3-3.2 3.2h2.4v-.4c0-.6.3-1 .9-1 .6 0 .9.6.9 1.1 0 .8-.5 1.5-.9 2.1L0 17.5h6.7v-1.8H4"/><path id="Fill-7" class="st2" d="M13.4 2.9c1.8 0 3.3 1.5 3.3 3.1 0 2-1.5 3.5-3.3 3.5S10.1 8 10.1 6c0-1.6 1.5-3.1 3.3-3.1m0-2.9C10.1 0 7 2.5 7 6c0 3.8 2.7 6.4 6.4 6.4s6.4-2.7 6.4-6.4c0-3.5-3.1-6-6.4-6"/></g></g></g></svg>