<?xml version="1.0" encoding="UTF-8" standalone="no"?>
<svg width="97px" height="37px" viewBox="0 0 97 37" version="1.1" xmlns="http://www.w3.org/2000/svg" xmlns:xlink="http://www.w3.org/1999/xlink">
    <!-- Generator: Sketch 39.1 (31720) - http://www.bohemiancoding.com/sketch -->
    <title>h2o_logo</title>
    <desc>Created with Sketch.</desc>
    <defs></defs>
    <g id="Page-1" stroke="none" stroke-width="1" fill="none" fill-rule="evenodd">
        <g id="Desktop-Copy-2" transform="translate(-464.000000, -29.000000)" fill="#FFFFFF">
            <g id="h2o_logo" transform="translate(464.000000, 29.000000)">
                <path d="M94.3713696,-2.25266363e-05 C93.2354635,-2.25266363e-05 92.2828008,0.950150989 92.2828008,2.08301553 C92.2828008,3.25242953 93.2354635,4.16605358 94.3713696,4.16605358 C95.5072757,4.16605358 96.4599947,3.25242953 96.4599947,2.08301553 C96.4599947,0.950150989 95.5072757,-2.25266363e-05 94.3713696,-2.25266363e-05 L94.3713696,-2.25266363e-05 Z M92.9057043,25.7271419 L95.8370349,25.7271419 L95.8370349,8.55131385 L92.9057043,8.55131385 L92.9057043,25.7271419 Z M78.3588399,10.7805498 C81.9863601,10.7805498 84.1482712,13.5579151 84.1482712,16.9930581 C84.1482712,20.4647507 82.1696034,23.4979623 78.3954548,23.4979623 C74.7312635,23.4979623 72.7525957,20.3186091 72.7525957,16.9565087 C72.7525957,13.7406061 74.9511217,10.7805498 78.3588399,10.7805498 L78.3588399,10.7805498 Z M86.9330297,8.55131385 L84.0016991,8.55131385 L84.0016991,10.9997903 L83.928413,10.9997903 C82.4993626,9.17259848 80.3741227,8.07628341 78.0290245,8.07628341 C72.8625529,8.07628341 69.747979,12.2788527 69.747979,17.1758055 C69.747979,21.9265604 72.935839,26.2022286 77.9924095,26.2022286 C80.4107938,26.2022286 82.4260766,25.2520551 83.928413,23.3517644 L84.0016991,23.3517644 L84.0016991,25.7271419 L86.9330297,25.7271419 L86.9330297,8.55131385 Z M64.7820177,22.1092514 C63.6461679,22.1092514 62.7301201,23.0228755 62.7301201,24.1191906 C62.7301201,25.2520551 63.6461679,26.2022286 64.7820177,26.2022286 C65.91798,26.2022286 66.8340279,25.2520551 66.8340279,24.1191906 C66.8340279,23.0228755 65.91798,22.1092514 64.7820177,22.1092514 L64.7820177,22.1092514 Z" id="Fill-1"></path>
                <polygon id="Fill-4" points="14.1788817 3.888486 14.1788817 12.5639441 5.80177128 12.5639441 5.80177128 3.888486 2.24976447e-05 3.888486 2.24976447e-05 26.3672531 5.80177128 26.3672531 5.80177128 17.1550979 14.1788817 17.1550979 14.1788817 26.3672531 19.9806867 26.3672531 19.9806867 3.888486"></polygon>
                <path d="M30.5357378,33.4192504 L33.0294329,31.0794087 C34.6706361,29.5767694 35.6297669,28.2244391 35.6297669,25.906054 C35.6297669,22.3855913 32.7950075,20.153089 29.4273913,20.153089 C25.6335573,20.153089 23.2890216,22.66464 23.1611224,26.378325 L27.7649279,26.378325 C27.7222949,26.1421895 27.7009784,25.906054 27.7009784,25.6913752 C27.7009784,24.596637 28.3191011,23.716465 29.4487079,23.716465 C30.5570543,23.716465 31.2817034,24.7898029 31.2817034,25.8201712 C31.2817034,27.3013539 30.3865222,28.7610799 29.4487079,29.7914482 L22.884064,36.9826263 L35.8002428,36.9826263 L35.8002428,33.4192504 L30.5357378,33.4192504" id="Fill-5"></path>
                <path d="M48.7508094,8.80757123 C52.214153,8.80757123 55.0558305,11.6397889 55.0558305,14.7402988 C55.0558305,18.6159502 52.214153,21.4481679 48.7508094,21.4481679 C45.287522,21.4481679 42.4457883,18.6159502 42.4457883,14.7402988 C42.4457883,11.6397889 45.287522,8.80757123 48.7508094,8.80757123 M48.7508094,3.14313592 C42.3273944,3.14313592 36.4071955,7.91320746 36.4071955,14.7105073 C36.4071955,21.9848087 41.5873907,27.1126032 48.7508094,27.1126032 C55.9142281,27.1126032 61.0944232,21.9848087 61.0944232,14.7105073 C61.0944232,7.91320746 55.1742243,3.14313592 48.7508094,3.14313592" id="Fill-7"></path>
            </g>
        </g>
    </g>
</svg>