<?xml version="1.0" encoding="UTF-8" standalone="no"?>
<svg width="24px" height="21px" viewBox="0 0 24 21" version="1.1" xmlns="http://www.w3.org/2000/svg" xmlns:xlink="http://www.w3.org/1999/xlink">
    <!-- Generator: Sketch 40 (33762) - http://www.bohemiancoding.com/sketch -->
    <title>Group 7</title>
    <desc>Created with Sketch.</desc>
    <defs></defs>
    <g id="Home" stroke="none" stroke-width="1" fill="none" fill-rule="evenodd">
        <g id="Group-7" fill="#FFDF00">
            <path d="M12.0002,16 C11.7962,16 11.6122,15.876 11.5362,15.686 L7.8542,6.482 L4.3912,10.813 C4.2952,10.931 4.1522,11 4.0002,11 L1.0002,11 C0.7242,11 0.5002,10.776 0.5002,10.5 C0.5002,10.224 0.7242,10 1.0002,10 L3.7602,10 L7.6092,5.187 C7.7202,5.048 7.8972,4.981 8.0732,5.005 C8.2502,5.031 8.3982,5.149 8.4642,5.314 L11.8902,13.878 L12.5152,11.379 C12.5712,11.156 12.7712,11 13.0002,11 L13.6402,11 L15.5262,5.342 C15.5922,5.143 15.7752,5.006 15.9852,5 C16.1952,4.989 16.3862,5.119 16.4642,5.314 L20.0002,14.154 L21.5362,10.314 C21.6122,10.125 21.7952,10 22.0002,10 L23.0002,10 C23.2762,10 23.5002,10.224 23.5002,10.5 C23.5002,10.776 23.2762,11 23.0002,11 L22.3382,11 L20.4642,15.686 C20.3122,16.065 19.6882,16.065 19.5362,15.686 L16.0422,6.953 L14.4742,11.658 C14.4062,11.862 14.2152,12 14.0002,12 L13.3912,12 L12.4852,15.621 C12.4332,15.832 12.2502,15.984 12.0342,15.999 C12.0222,16 12.0112,16 12.0002,16" id="Fill-22"></path>
            <path d="M22.3947,9 C22.3177,9 22.2407,8.982 22.1677,8.945 C21.9217,8.819 21.8247,8.518 21.9497,8.272 C22.3147,7.559 22.4997,6.794 22.4997,6 C22.4997,3.243 20.2567,1 17.4997,1 C14.7437,1 12.4997,3.243 12.4997,6 C12.4997,6.276 12.2767,6.5 11.9997,6.5 C11.7237,6.5 11.4997,6.276 11.4997,6 C11.4997,3.243 9.2567,1 6.4997,1 C3.7437,1 1.4997,3.243 1.4997,6 C1.4997,6.794 1.6857,7.559 2.0507,8.272 C2.1757,8.518 2.0787,8.819 1.8327,8.945 C1.5867,9.069 1.2847,8.973 1.1597,8.728 C0.7227,7.872 0.4997,6.954 0.4997,6 C0.4997,2.691 3.1917,0 6.4997,0 C8.9567,0 11.0727,1.484 11.9997,3.603 C12.9277,1.484 15.0437,0 17.4997,0 C20.8087,0 23.4997,2.691 23.4997,6 C23.4997,6.954 23.2777,7.872 22.8407,8.728 C22.7517,8.9 22.5767,9 22.3947,9" id="Fill-24"></path>
            <path d="M12.0002,21 C11.8562,21 11.7192,20.938 11.6242,20.829 L4.6242,12.829 C4.4422,12.622 4.4632,12.306 4.6712,12.124 C4.8782,11.941 5.1932,11.962 5.3762,12.171 L11.9942,19.733 L17.1182,13.677 C17.2972,13.467 17.6122,13.44 17.8232,13.618 C18.0342,13.797 18.0602,14.112 17.8822,14.323 L12.3822,20.823 C12.2882,20.934 12.1502,20.999 12.0042,21 L12.0002,21 Z" id="Fill-26"></path>
        </g>
    </g>
</svg>