<?xml version="1.0" encoding="UTF-8" standalone="no"?>
<svg width="23px" height="24px" viewBox="0 0 23 24" version="1.1" xmlns="http://www.w3.org/2000/svg" xmlns:xlink="http://www.w3.org/1999/xlink">
    <!-- Generator: Sketch 40 (33762) - http://www.bohemiancoding.com/sketch -->
    <title>Group 8</title>
    <desc>Created with Sketch.</desc>
    <defs>
        <polygon id="path-1" points="23 10 23 3.55271368e-15 0.0001 0 0.0001 10 23 10"></polygon>
    </defs>
    <g id="Home" stroke="none" stroke-width="1" fill="none" fill-rule="evenodd">
        <g id="Group-8">
            <g id="Group-30" transform="translate(0.000000, 1.000000)">
                <mask id="mask-2" fill="white">
                    <use xlink:href="#path-1"></use>
                </mask>
                <g id="Clip-29"></g>
                <path d="M11.5001,7 C13.0421,7 14.4531,7.73 15.1671,8.859 C15.8801,7.73 17.2911,7 18.8331,7 C19.9991,7 21.0881,7.417 21.8591,8.107 C21.0361,4.081 16.7041,1 11.5001,1 C6.2961,1 1.9641,4.081 1.1411,8.107 C1.9121,7.417 3.0011,7 4.1671,7 C5.7091,7 7.1201,7.73 7.8331,8.859 C8.5471,7.73 9.9581,7 11.5001,7 M22.5001,10 L22.2751,10 C22.0761,10 21.8961,9.882 21.8171,9.699 C21.3751,8.683 20.1771,8 18.8331,8 C17.4901,8 16.2911,8.683 15.8501,9.699 C15.7711,9.882 15.5901,10 15.3911,10 L14.9421,10 C14.7431,10 14.5631,9.882 14.4831,9.699 C14.0421,8.683 12.8431,8 11.5001,8 C10.1571,8 8.9581,8.683 8.5171,9.699 C8.4371,9.882 8.2571,10 8.0581,10 L7.6091,10 C7.4101,10 7.2291,9.882 7.1501,9.699 C6.7091,8.683 5.5101,8 4.1671,8 C2.8231,8 1.6251,8.683 1.1831,9.699 C1.1041,9.882 0.9241,10 0.7251,10 L0.5001,10 C0.2241,10 0.0001,9.776 0.0001,9.5 C0.0001,4.262 5.1591,0 11.5001,0 C17.8411,0 23.0001,4.262 23.0001,9.5 C23.0001,9.776 22.7761,10 22.5001,10" id="Fill-28" fill="#FFDF00" mask="url(#mask-2)"></path>
            </g>
            <path d="M7.609,11 C7.333,11 7.109,10.776 7.109,10.5 C7.109,7.238 8.819,1 11.5,1 C11.776,1 12,1.224 12,1.5 C12,1.776 11.776,2 11.5,2 C9.895,2 8.109,7.066 8.109,10.5 C8.109,10.776 7.885,11 7.609,11" id="Fill-31" fill="#FFDF00"></path>
            <path d="M15.5001,11 C15.2241,11 15.0001,10.776 15.0001,10.5 C15.0001,7.066 13.2141,2 11.6091,2 C11.3331,2 11.1091,1.776 11.1091,1.5 C11.1091,1.224 11.3331,1 11.6091,1 C14.2901,1 16.0001,7.238 16.0001,10.5 C16.0001,10.776 15.7761,11 15.5001,11" id="Fill-33" fill="#FFDF00"></path>
            <path d="M11.5001,2 C11.2241,2 11.0001,1.776 11.0001,1.5 L11.0001,0.5 C11.0001,0.224 11.2241,0 11.5001,0 C11.7761,0 12.0001,0.224 12.0001,0.5 L12.0001,1.5 C12.0001,1.776 11.7761,2 11.5001,2" id="Fill-35" fill="#FFDF00"></path>
            <path d="M9.5001,24 C8.1221,24 7.0001,22.878 7.0001,21.5 C7.0001,20.191 7.6191,19.664 7.6901,19.608 C7.9081,19.437 8.2211,19.474 8.3921,19.69 C8.5631,19.906 8.5271,20.221 8.3101,20.392 C8.3101,20.394 8.0001,20.687 8.0001,21.5 C8.0001,22.327 8.6731,23 9.5001,23 C10.3271,23 11.0001,22.327 11.0001,21.5 L11.0001,8.5 C11.0001,8.224 11.2241,8 11.5001,8 C11.7761,8 12.0001,8.224 12.0001,8.5 L12.0001,21.5 C12.0001,22.878 10.8781,24 9.5001,24" id="Fill-37" fill="#FFDF00"></path>
        </g>
    </g>
</svg>