<?xml version="1.0" encoding="UTF-8"?>
<svg width="17px" height="24px" viewBox="0 0 17 24" version="1.1" xmlns="http://www.w3.org/2000/svg" xmlns:xlink="http://www.w3.org/1999/xlink">
    <defs></defs>
    <g id="Page-1" stroke="none" stroke-width="1" fill="none" fill-rule="evenodd">
        <path d="M5.82812363,19.1189905 L5.534,15 C5.141,14.97 4.771,14.79 4.508,14.49 C4.224,14.17 4.091,13.74 4.145,13.31 L4.785,8.19 C4.941,6.94 6.008,6 7.266,6 L9.734,6 C10.992,6 12.059,6.94 12.215,8.19 L12.855,13.31 C12.909,13.74 12.776,14.17 12.492,14.49 C12.229,14.79 11.859,14.97 11.466,15 L11.1718764,19.1189905 C13.0231223,19.2820397 17,19.8326311 17,21.5 C17,23.48 11.44,24 8.5,24 C5.56,24 0,23.48 0,21.5 C0,19.8326311 3.97687769,19.2820397 5.82812363,19.1189905 Z M5.89887973,20.1098789 C2.46396116,20.4161783 1,21.2134842 1,21.5 C1,21.94 3.628,23 8.5,23 C13.372,23 16,21.94 16,21.5 C16,21.2134842 14.5360388,20.4161783 11.1011203,20.1098789 L10.999,21.54 C10.98,21.8 10.762,22 10.5,22 L6.5,22 C6.238,22 6.02,21.8 6.001,21.54 L5.89887973,20.1098789 Z M6.965,21 L10.035,21 L10.501,14.46 C10.52,14.2 10.738,14 11,14 L11.367,14 C11.513,14 11.646,13.94 11.742,13.83 C11.838,13.72 11.881,13.58 11.863,13.44 L11.223,8.31 C11.129,7.57 10.489,7 9.734,7 L7.266,7 C6.511,7 5.871,7.57 5.777,8.31 L5.137,13.44 C5.119,13.58 5.162,13.72 5.258,13.83 C5.354,13.94 5.487,14 5.633,14 L6,14 C6.262,14 6.48,14.2 6.499,14.46 L6.965,21 Z M8.5,5 C7.122,5 6,3.88 6,2.5 C6,1.12 7.122,0 8.5,0 C9.878,0 11,1.12 11,2.5 C11,3.88 9.878,5 8.5,5 Z M8.5,1 C7.673,1 7,1.67 7,2.5 C7,3.33 7.673,4 8.5,4 C9.327,4 10,3.33 10,2.5 C10,1.67 9.327,1 8.5,1 Z" id="marketing_icon" fill="#FFDF00"></path>
    </g>
</svg>