<?xml version="1.0" encoding="UTF-8" standalone="no"?>
<svg width="100px" height="44px" viewBox="0 0 100 44" version="1.1" xmlns="http://www.w3.org/2000/svg" xmlns:xlink="http://www.w3.org/1999/xlink">
    <!-- Generator: Sketch 40 (33762) - http://www.bohemiancoding.com/sketch -->
    <title>steam_mixed-case</title>
    <desc>Created with Sketch.</desc>
    <defs></defs>
    <g id="Home-2" stroke="none" stroke-width="1" fill="none" fill-rule="evenodd">
        <g id="steam_mixed-case" fill="#F6921E">
            <g id="Layer_1">
                <g id="Group">
                    <path d="M0.167785235,32.2483221 L3.42281879,31.3087248 C3.55704698,32.4832215 3.79194631,33.557047 4.12751678,34.5302013 C4.46308725,35.5033557 4.89932886,36.442953 5.46979866,37.2818792 C6.04026846,38.1208054 6.77852349,38.7919463 7.71812081,39.295302 C8.65771812,39.7651007 9.69798658,40.033557 10.8724832,40.033557 C12.7516779,40.033557 14.2281879,39.4966443 15.2684564,38.4563758 C16.3087248,37.4161074 16.8120805,35.9060403 16.8120805,33.9932886 C16.8120805,32.3825503 16.3422819,30.8389262 15.4026846,29.3624161 C14.4630872,27.885906 13.0536913,26.1744966 11.2080537,24.2281879 L4.69798658,17.3825503 C3.2885906,15.8724832 2.18120805,14.4630872 1.40939597,13.1543624 C0.637583893,11.8456376 0.268456376,10.4697987 0.268456376,9.02684564 C0.268456376,6.30872483 1.17449664,4.12751678 2.95302013,2.48322148 C4.73154362,0.838926174 7.04697987,0.033557047 9.86577181,0.033557047 C12.5838926,0.033557047 14.7986577,0.805369128 16.442953,2.34899329 C18.1208054,3.89261745 19.2281879,6.1409396 19.7651007,9.06040268 L19.8322148,9.46308725 L16.7449664,10.4362416 L16.7114094,10.1006711 C16.3758389,8.02013423 15.6375839,6.30872483 14.4630872,5 C13.2885906,3.69127517 11.7449664,3.02013423 9.86577181,3.02013423 C8.02013423,3.02013423 6.54362416,3.48993289 5.46979866,4.4295302 C4.36241611,5.36912752 3.82550336,6.74496644 3.82550336,8.59060403 C3.82550336,9.69798658 4.12751678,10.7718121 4.69798658,11.8456376 C5.26845638,12.9194631 6.1409396,14.0268456 7.2147651,15.2348993 L13.3557047,21.9127517 C13.5234899,22.0805369 13.9261745,22.5167785 14.5637584,23.2214765 C15.2013423,23.9261745 15.6375839,24.3959732 15.8389262,24.6308725 C16.0402685,24.8657718 16.409396,25.3020134 16.9463087,25.9395973 C17.4832215,26.5771812 17.852349,27.0805369 18.0536913,27.4161074 C18.2550336,27.7516779 18.557047,28.2214765 18.9261745,28.8255034 C19.295302,29.4295302 19.5637584,29.966443 19.6979866,30.4026846 C19.8322148,30.8389262 19.966443,31.3758389 20.1006711,31.9798658 C20.2348993,32.5838926 20.3020134,33.1543624 20.3020134,33.7583893 C20.3020134,36.7449664 19.3959732,39.0268456 17.5503356,40.6375839 C15.704698,42.2483221 13.3557047,43.0536913 10.4362416,43.0536913 C8.95973154,43.0536913 7.58389262,42.7516779 6.37583893,42.1812081 C5.16778523,41.6107383 4.12751678,40.8053691 3.32214765,39.8322148 C2.48322148,38.8255034 1.81208054,37.6845638 1.27516779,36.442953 C0.771812081,35.0671141 0.402684564,33.7248322 0.167785235,32.2483221 L0.167785235,32.2483221 Z" id="Shape"></path>
                    <path d="M24.5637584,35.4362416 L24.5637584,15.3020134 L20.6040268,15.3020134 L20.6040268,13.2550336 L24.5637584,13.2550336 L24.5637584,2.95302013 L28.1879195,2.95302013 L28.1879195,13.2550336 L32.852349,13.2550336 L32.852349,15.3020134 L28.1879195,15.3020134 L28.1879195,35.2684564 C28.1879195,35.9731544 28.1879195,36.5100671 28.2214765,36.9127517 C28.2214765,37.3154362 28.2885906,37.7516779 28.3892617,38.1879195 C28.4899329,38.6241611 28.6241611,38.9932886 28.7919463,39.2281879 C28.9597315,39.4630872 29.1946309,39.6308725 29.5302013,39.7986577 C29.8657718,39.966443 30.2348993,40.033557 30.704698,40.033557 C31.5100671,40.033557 32.2147651,39.966443 32.852349,39.8322148 L32.852349,42.3154362 C31.7785235,42.5838926 30.704698,42.7181208 29.6979866,42.7181208 C28.7919463,42.7181208 28.0201342,42.5838926 27.3825503,42.2818792 C26.7449664,42.0134228 26.2416107,41.6442953 25.9060403,41.2416107 C25.5704698,40.8053691 25.2684564,40.2684564 25.0671141,39.5637584 C24.8657718,38.8590604 24.7315436,38.2214765 24.6979866,37.6174497 C24.6644295,37.0134228 24.5637584,36.3087248 24.5637584,35.4362416 L24.5637584,35.4362416 Z" id="Shape"></path>
                    <path d="M35.1006711,28.9261745 L35.1006711,24.8657718 C35.1006711,22.852349 35.2684564,21.1073826 35.5369128,19.6308725 C35.8053691,18.1543624 36.1744966,16.9798658 36.6107383,16.0738255 C37.0469799,15.2013423 37.6174497,14.4630872 38.3221477,13.9597315 C39.0268456,13.4228188 39.7315436,13.0872483 40.5033557,12.885906 C41.2416107,12.6845638 42.114094,12.6174497 43.1208054,12.6174497 C45.738255,12.6174497 47.5838926,13.5234899 48.7248322,15.3691275 C49.8657718,17.2147651 50.4362416,20.1342282 50.4362416,24.0939597 C50.4362416,25.3020134 50.4362416,26.3087248 50.4026846,27.0805369 L38.7583893,27.0805369 L38.7583893,31.5100671 C38.7583893,33.4228188 38.8590604,34.966443 39.0268456,36.2080537 C39.2281879,37.4161074 39.4966443,38.3557047 39.8993289,38.9597315 C40.3020134,39.5637584 40.738255,40 41.2416107,40.2013423 C41.7449664,40.4026846 42.3489933,40.5033557 43.0872483,40.5033557 C44.1610738,40.5033557 45.0671141,39.966443 45.8053691,38.8590604 C46.5436242,37.7516779 46.9127517,35.9395973 46.9463087,33.3892617 L50.3355705,33.3892617 C50.2348993,34.4966443 50.1006711,35.4697987 49.9328859,36.3087248 C49.7651007,37.1812081 49.5302013,38.0201342 49.1610738,38.8926174 C48.8255034,39.7651007 48.3892617,40.4697987 47.885906,41.0402685 C47.3825503,41.6107383 46.7114094,42.0805369 45.9060403,42.4161074 C45.1006711,42.7852349 44.1610738,42.9530201 43.1208054,42.9530201 C41.0738255,42.9530201 39.4630872,42.5503356 38.3221477,41.7449664 C37.1812081,40.9395973 36.3422819,39.4966443 35.8053691,37.4832215 C35.3355705,35.4362416 35.1006711,32.5838926 35.1006711,28.9261745 L35.1006711,28.9261745 Z M38.7919463,25.2684564 L46.8456376,25.2684564 L46.8456376,23.2885906 C46.8456376,22.6174497 46.8456376,21.9463087 46.8120805,21.2751678 C46.7785235,20.6040268 46.7449664,19.966443 46.6778523,19.3624161 C46.6107383,18.7583893 46.5100671,18.1879195 46.3422819,17.6510067 C46.1744966,17.114094 45.9731544,16.6778523 45.738255,16.2751678 C45.5033557,15.8724832 45.1677852,15.5704698 44.7315436,15.3691275 C44.295302,15.1342282 43.8255034,15.033557 43.2885906,15.033557 C42.4161074,15.033557 41.6778523,15.2013423 41.1073826,15.5033557 C40.5369128,15.8389262 40.1006711,16.2080537 39.7651007,16.6442953 C39.4630872,17.0805369 39.2281879,17.8187919 39.0604027,18.8590604 C38.9261745,19.8993289 38.8255034,20.8053691 38.7919463,21.5771812 C38.7583893,22.3489933 38.7919463,23.6241611 38.7919463,25.2684564 L38.7919463,25.2684564 Z" id="Shape"></path>
                    <path d="M65.7718121,42.2818792 L65.3020134,38.7583893 C64.5302013,40.1006711 63.557047,41.1409396 62.4161074,41.8456376 C61.2751678,42.5503356 60.2013423,42.9194631 59.1610738,42.9194631 C57.6510067,42.9194631 56.3087248,42.3154362 55.1677852,41.1409396 C53.9932886,39.966443 53.4228188,38.3892617 53.4228188,36.4765101 C53.4228188,35.9731544 53.4228188,35.5369128 53.4563758,35.2348993 C53.4563758,34.9328859 53.5234899,34.4966443 53.590604,34.0268456 C53.6577181,33.5234899 53.7583893,33.1208054 53.8926174,32.7516779 C54.0268456,32.4161074 54.2281879,31.9798658 54.4966443,31.5100671 C54.7651007,31.0402685 55.1006711,30.5704698 55.4697987,30.2013423 C55.8724832,29.8322148 56.3422819,29.3959732 56.9127517,28.8926174 C57.4832215,28.3892617 58.1543624,27.9194631 58.9261745,27.4832215 C59.6979866,27.0469799 60.5704698,26.5771812 61.6107383,26.0402685 C62.6510067,25.5369128 63.7583893,25.033557 65,24.4966443 L65,24.261745 C65,22.6174497 64.9328859,21.2080537 64.7651007,20.033557 C64.6308725,18.8590604 64.4295302,17.9530201 64.2281879,17.3154362 C64.0268456,16.6778523 63.7583893,16.1744966 63.4228188,15.8389262 C63.0872483,15.4697987 62.7852349,15.2684564 62.4832215,15.1677852 C62.1812081,15.0671141 61.8456376,15.033557 61.409396,15.033557 C60.9731544,15.033557 60.5704698,15.1006711 60.2348993,15.2013423 C59.8993289,15.3355705 59.5302013,15.5704698 59.1275168,15.9060403 C58.7248322,16.2416107 58.4228188,16.8120805 58.1543624,17.6174497 C57.885906,18.4228188 57.7181208,19.3959732 57.6845638,20.5704698 L57.6845638,20.738255 L53.8926174,20.738255 C54.0939597,18.1879195 54.8322148,16.2080537 56.1409396,14.7651007 C57.4496644,13.3221477 59.1610738,12.5838926 61.2751678,12.5838926 C62.4496644,12.5838926 63.4899329,12.7852349 64.3959732,13.1543624 C65.3020134,13.5234899 66.0067114,14.0268456 66.5436242,14.5973154 C67.0805369,15.2013423 67.4832215,15.9060403 67.8187919,16.7114094 C68.1543624,17.5503356 68.3557047,18.3221477 68.4899329,19.1275168 C68.590604,19.8993289 68.6577181,20.738255 68.6577181,21.6107383 L68.6577181,35.5704698 C68.6577181,36.5771812 68.6912752,37.6510067 68.7583893,38.7583893 C68.8255034,39.8657718 68.8926174,40.738255 68.9932886,41.3422819 L69.0939597,42.2483221 L65.7718121,42.2483221 L65.7718121,42.2818792 Z M65.033557,36.3758389 L65.033557,26.1409396 C63.8590604,26.9798658 62.9194631,27.6174497 62.2483221,28.1208054 C61.5771812,28.6241611 60.8389262,29.1946309 60.1006711,29.8657718 C59.3624161,30.5369128 58.7919463,31.1409396 58.3892617,31.7114094 C58.0201342,32.2483221 57.6845638,32.885906 57.4496644,33.590604 C57.2147651,34.295302 57.0805369,35.033557 57.0805369,35.8053691 C57.0805369,37.1812081 57.3825503,38.2214765 57.9530201,38.8926174 C58.5234899,39.5637584 59.2281879,39.8993289 60,39.8993289 C60.9060403,39.8993289 61.8456376,39.5637584 62.7852349,38.8926174 C63.7583893,38.2550336 64.4966443,37.4161074 65.033557,36.3758389 L65.033557,36.3758389 Z" id="Shape"></path>
                    <path d="M73.0872483,42.2818792 L73.0872483,13.2550336 L76.7449664,13.2550336 L76.7449664,15.9395973 C78.6241611,13.7248322 80.7718121,12.5838926 83.1879195,12.5838926 C84.1610738,12.5838926 85.1342282,12.885906 86.0402685,13.4899329 C86.9463087,14.0939597 87.6174497,14.8993289 88.0201342,15.8724832 C88.9597315,14.7986577 90,13.9597315 91.1409396,13.4228188 C92.2818792,12.885906 93.3221477,12.5838926 94.2281879,12.5838926 C95.704698,12.5838926 97.0134228,13.0872483 98.1208054,14.1275168 C99.2281879,15.1677852 99.7651007,16.442953 99.7651007,18.0201342 L99.7651007,42.2818792 L96.1409396,42.2818792 L96.1409396,18.7919463 C96.1409396,17.5838926 95.8724832,16.7114094 95.3355705,16.1409396 C94.7986577,15.5704698 94.0604027,15.3020134 93.1543624,15.3020134 C91.6442953,15.3020134 90.1006711,16.0738255 88.557047,17.6510067 L88.557047,42.2818792 L84.9328859,42.2818792 L84.9328859,18.7583893 C84.9328859,16.442953 83.8926174,15.3020134 81.8456376,15.3020134 C81.0067114,15.3020134 80.1677852,15.5704698 79.2281879,16.0738255 C78.2885906,16.5771812 77.4496644,17.2818792 76.6778523,18.1879195 L76.6778523,42.2818792 L73.0872483,42.2818792 L73.0872483,42.2818792 Z" id="Shape"></path>
                </g>
            </g>
        </g>
    </g>
</svg>