<?xml version="1.0" encoding="UTF-8"?>
<svg width="24px" height="24px" viewBox="0 0 24 24" version="1.1" xmlns="http://www.w3.org/2000/svg" xmlns:xlink="http://www.w3.org/1999/xlink">
    <defs></defs>
    <g id="Page-1" stroke="none" stroke-width="1" fill="none" fill-rule="evenodd">
        <path d="M16.7934855,17.6842105 C17.2980282,16.1940612 17.6144961,14.4665128 17.6739861,12.6315789 L12.6315789,12.6315789 L12.6315789,17.6842105 L16.7934855,17.6842105 Z M16.2952146,18.9473684 L12.6315789,18.9473684 L12.6315789,22.667726 C14.0760609,22.3504398 15.3757939,20.9621587 16.2952146,18.9473684 Z M7.20651452,17.6842105 L11.3684211,17.6842105 L11.3684211,12.6315789 L6.32601391,12.6315789 C6.3855039,14.4665128 6.70197179,16.1940612 7.20651452,17.6842105 Z M7.70478544,18.9473684 C8.62420608,20.9621587 9.92393911,22.3504398 11.3684211,22.667726 L11.3684211,18.9473684 L7.70478544,18.9473684 Z M21.078291,17.7292471 C22.0226962,16.2376858 22.6098433,14.4981786 22.7185075,12.6315789 L18.938358,12.6315789 C18.885916,14.4631528 18.6063277,16.174004 18.1460059,17.6842105 L20.8421053,17.6842105 C20.9255955,17.6842105 21.0053187,17.700148 21.078291,17.7292471 Z M20.1814328,18.9473684 L17.7003103,18.9473684 C17.2107984,20.1567006 16.5941218,21.1958308 15.8810505,22.0117736 C17.5591703,21.3593757 19.0339326,20.2967322 20.1814328,18.9473684 Z M2.92170903,17.7292471 C2.99468126,17.700148 3.07440448,17.6842105 3.15789474,17.6842105 L5.85399407,17.6842105 C5.39367235,16.174004 5.11408396,14.4631528 5.06164199,12.6315789 L1.28149248,12.6315789 C1.39015668,14.4981786 1.97730383,16.2376858 2.92170903,17.7292471 Z M3.81856724,18.9473684 C4.96606737,20.2967322 6.44082968,21.3593757 8.11894952,22.0117736 C7.40587824,21.1958308 6.78920158,20.1567006 6.29968973,18.9473684 L3.81856724,18.9473684 Z M16.7934855,6.31578947 L12.6315789,6.31578947 L12.6315789,11.3684211 L17.6739861,11.3684211 C17.6144961,9.53348717 17.2980282,7.8059388 16.7934855,6.31578947 Z M16.2952146,5.05263158 C15.3757939,3.03784134 14.0760609,1.64956018 12.6315789,1.33227395 L12.6315789,5.05263158 L16.2952146,5.05263158 Z M7.20651452,6.31578947 C6.70197179,7.8059388 6.3855039,9.53348717 6.32601391,11.3684211 L11.3684211,11.3684211 L11.3684211,6.31578947 L7.20651452,6.31578947 Z M7.70478544,5.05263158 L11.3684211,5.05263158 L11.3684211,1.33227395 C9.92393911,1.64956018 8.62420608,3.03784134 7.70478544,5.05263158 Z M21.078291,6.27075295 C21.0053187,6.29985204 20.9255955,6.31578947 20.8421053,6.31578947 L18.1460059,6.31578947 C18.6063277,7.82599604 18.885916,9.53684718 18.938358,11.3684211 L22.7185075,11.3684211 C22.6098433,9.50182145 22.0226962,7.76231418 21.078291,6.27075295 Z M20.1814328,5.05263158 C19.0339326,3.70326775 17.5591703,2.64062429 15.8810505,1.98822641 C16.5941218,2.80416922 17.2107984,3.84329938 17.7003103,5.05263158 L20.1814328,5.05263158 Z M2.92170903,6.27075295 C1.97730383,7.76231418 1.39015668,9.50182145 1.28149248,11.3684211 L5.06164199,11.3684211 C5.11408396,9.53684718 5.39367235,7.82599604 5.85399407,6.31578947 L3.15789474,6.31578947 C3.07440448,6.31578947 2.99468126,6.29985204 2.92170903,6.27075295 Z M3.81856724,5.05263158 L6.29968973,5.05263158 C6.78920158,3.84329938 7.40587824,2.80416922 8.11894952,1.98822641 C6.44082968,2.64062429 4.96606737,3.70326775 3.81856724,5.05263158 Z M12,24 C5.38357895,24 0,18.6189474 0,12 C0,5.38105263 5.38357895,0 12,0 C18.6164211,0 24,5.38105263 24,12 C24,18.6189474 18.6164211,24 12,24 Z" id="telecom_icon" fill="#FFDF00"></path>
    </g>
</svg>