<?xml version="1.0" encoding="UTF-8" standalone="no"?>
<svg width="48px" height="48px" viewBox="0 0 48 48" version="1.1" xmlns="http://www.w3.org/2000/svg" xmlns:xlink="http://www.w3.org/1999/xlink">
    <!-- Generator: Sketch 40.1 (33804) - http://www.bohemiancoding.com/sketch -->
    <title>circle-twitter</title>
    <desc>Created with Sketch.</desc>
    <defs></defs>
    <g id="Symbols" stroke="none" stroke-width="1" fill="none" fill-rule="evenodd">
        <g id="Footer-Copy-2" transform="translate(-1264.000000, -284.000000)">
            <g id="Footer" transform="translate(0.000000, 23.000000)">
                <g id="circle-twitter" transform="translate(1264.000000, 261.000000)">
                    <circle id="Oval" fill="#55ACEE" cx="24" cy="24" r="24"></circle>
                    <path d="M39.0195,14.844 C37.914,15.3285 36.729,15.651 35.481,15.798 C36.756,15.051 37.731,13.8645 38.1915,12.45 C37.002,13.143 35.6835,13.647 34.2795,13.9185 C33.1575,12.7425 31.5555,12.006 29.7855,12.006 C26.382,12.006 23.628,14.7165 23.628,18.0645 C23.628,18.537 23.682,19.002 23.784,19.449 C18.666,19.191 14.13,16.779 11.0925,13.116 C10.5615,14.0115 10.254,15.051 10.254,16.1625 C10.254,18.2625 11.346,20.1165 12.996,21.207 C11.988,21.1725 11.037,20.901 10.209,20.4465 C10.2075,20.472 10.2075,20.496 10.2075,20.523 C10.2075,23.46 12.33,25.9095 15.147,26.4675 C14.6325,26.6025 14.088,26.679 13.524,26.679 C13.128,26.679 12.744,26.643 12.3675,26.5725 C13.149,28.977 15.4245,30.729 18.1185,30.7815 C16.0155,32.4045 13.3575,33.3765 10.47,33.3765 C9.975,33.3765 9.4815,33.348 9.0015,33.2895 C11.7255,35.0085 14.9655,36.0105 18.444,36.0105 C29.772,36.0105 35.967,26.7765 35.967,18.768 C35.967,18.5085 35.958,18.2415 35.946,17.9865 C37.149,17.1255 38.193,16.059 39.0195,14.844 L39.0195,14.844 Z" id="Shape" fill="#FFFFFF"></path>
                </g>
            </g>
        </g>
    </g>
</svg>